<?xml version="1.0" encoding="UTF-8"?> <svg xmlns="http://www.w3.org/2000/svg" width="116" height="116" viewBox="0 0 116 116" fill="none"> <g clip-path="url(#clip0_4_893)"> <path d="M58 10.4445C73.4969 10.4445 75.332 10.5125 81.4266 10.7844C87.0906 11.0336 90.1492 11.9852 92.1883 12.7781C94.8844 13.8203 96.8328 15.0891 98.8492 17.1055C100.888 19.1445 102.134 21.0703 103.177 23.7664C103.97 25.8055 104.921 28.8867 105.17 34.5281C105.442 40.6453 105.51 42.4805 105.51 57.9547C105.51 73.4516 105.442 75.2867 105.17 81.3813C104.921 87.0453 103.97 90.1039 103.177 92.143C102.134 94.8391 100.866 96.7875 98.8492 98.8039C96.8102 100.843 94.8844 102.089 92.1883 103.131C90.1492 103.924 87.068 104.876 81.4266 105.125C75.3094 105.397 73.4742 105.465 58 105.465C42.5031 105.465 40.668 105.397 34.5734 105.125C28.9094 104.876 25.8508 103.924 23.8117 103.131C21.1156 102.089 19.1672 100.82 17.1508 98.8039C15.1117 96.7648 13.8656 94.8391 12.8234 92.143C12.0305 90.1039 11.0789 87.0227 10.8297 81.3813C10.5578 75.2641 10.4898 73.4289 10.4898 57.9547C10.4898 42.4578 10.5578 40.6227 10.8297 34.5281C11.0789 28.8641 12.0305 25.8055 12.8234 23.7664C13.8656 21.0703 15.1344 19.1219 17.1508 17.1055C19.1898 15.0664 21.1156 13.8203 23.8117 12.7781C25.8508 11.9852 28.932 11.0336 34.5734 10.7844C40.668 10.5125 42.5031 10.4445 58 10.4445ZM58 0C42.2539 0 40.2828 0.0679687 34.0977 0.339844C27.9352 0.611719 23.6984 1.60859 20.0281 3.03594C16.1992 4.53125 12.9594 6.50234 9.74219 9.74219C6.50234 12.9594 4.53125 16.1992 3.03594 20.0055C1.60859 23.6984 0.611719 27.9125 0.339844 34.075C0.0679688 40.2828 0 42.2539 0 58C0 73.7461 0.0679688 75.7172 0.339844 81.9023C0.611719 88.0648 1.60859 92.3016 3.03594 95.9719C4.53125 99.8008 6.50234 103.041 9.74219 106.258C12.9594 109.475 16.1992 111.469 20.0055 112.941C23.6984 114.369 27.9125 115.366 34.075 115.637C40.2602 115.909 42.2313 115.977 57.9773 115.977C73.7234 115.977 75.6945 115.909 81.8797 115.637C88.0422 115.366 92.2789 114.369 95.9492 112.941C99.7555 111.469 102.995 109.475 106.213 106.258C109.43 103.041 111.423 99.8008 112.896 95.9945C114.323 92.3016 115.32 88.0875 115.592 81.925C115.864 75.7398 115.932 73.7688 115.932 58.0227C115.932 42.2766 115.864 40.3055 115.592 34.1203C115.32 27.9578 114.323 23.7211 112.896 20.0508C111.469 16.1992 109.498 12.9594 106.258 9.74219C103.041 6.525 99.8008 4.53125 95.9945 3.05859C92.3016 1.63125 88.0875 0.634375 81.925 0.3625C75.7172 0.0679688 73.7461 0 58 0Z" fill="white"></path> <path d="M58.0002 28.2067C41.5518 28.2067 28.2072 41.5513 28.2072 57.9997C28.2072 74.4481 41.5518 87.7927 58.0002 87.7927C74.4486 87.7927 87.7932 74.4481 87.7932 57.9997C87.7932 41.5513 74.4486 28.2067 58.0002 28.2067ZM58.0002 77.3255C47.3291 77.3255 38.6744 68.6708 38.6744 57.9997C38.6744 47.3286 47.3291 38.6739 58.0002 38.6739C68.6713 38.6739 77.326 47.3286 77.326 57.9997C77.326 68.6708 68.6713 77.3255 58.0002 77.3255Z" fill="white"></path> <path d="M95.9264 27.0291C95.9264 30.8806 92.7998 33.9845 88.9709 33.9845C85.1193 33.9845 82.0154 30.858 82.0154 27.0291C82.0154 23.1775 85.142 20.0736 88.9709 20.0736C92.7998 20.0736 95.9264 23.2002 95.9264 27.0291Z" fill="white"></path> </g> <defs> <clipPath id="clip0_4_893"> <rect width="28.7794" height="28.7794" fill="white" transform="scale(4.03066)"></rect> </clipPath> </defs> </svg> 