<?xml version="1.0" encoding="UTF-8"?> <svg xmlns="http://www.w3.org/2000/svg" width="116" height="116" viewBox="0 0 116 116" fill="none"> <g clip-path="url(#clip0_4_892)"> <path d="M36.4924 105.125C80.2552 105.125 104.198 68.8594 104.198 37.4193C104.198 36.3998 104.176 35.3576 104.13 34.338C108.788 30.9697 112.808 26.7975 116 22.0176C111.662 23.9475 107.057 25.208 102.341 25.7559C107.306 22.7794 111.024 18.1034 112.805 12.5948C108.134 15.3633 103.025 17.3163 97.6983 18.3699C94.1091 14.5562 89.3634 12.031 84.1951 11.1849C79.0269 10.3387 73.7238 11.2187 69.1058 13.6888C64.4877 16.1588 60.812 20.0814 58.6469 24.85C56.4818 29.6186 55.9479 34.9676 57.1277 40.0701C47.6687 39.5954 38.415 37.1382 29.9666 32.8578C21.5181 28.5773 14.0635 22.5692 8.08601 15.223C5.04793 20.461 4.11827 26.6592 5.48598 32.5581C6.85369 38.4569 10.4161 43.6136 15.4493 46.9802C11.6707 46.8603 7.97488 45.8429 4.66719 44.0123V44.3068C4.6638 49.8037 6.56414 55.1321 10.0452 59.3863C13.5262 63.6406 18.3731 66.558 23.7619 67.6427C20.2616 68.6004 16.5879 68.74 13.0251 68.0505C14.5457 72.7779 17.5043 76.9126 21.4879 79.8776C25.4715 82.8425 30.2814 84.4898 35.2463 84.5896C26.8174 91.2107 16.4052 94.8019 5.68672 94.7849C3.78589 94.782 1.88693 94.6655 0 94.436C10.8888 101.422 23.5554 105.132 36.4924 105.125Z" fill="white"></path> </g> <defs> <clipPath id="clip0_4_892"> <rect width="28.7794" height="28.7794" fill="white" transform="scale(4.03066)"></rect> </clipPath> </defs> </svg> 