<?xml version="1.0" encoding="UTF-8"?> <svg xmlns="http://www.w3.org/2000/svg" width="116" height="116" viewBox="0 0 116 116" fill="none"> <g clip-path="url(#clip0_4_894)"> <path d="M98.1989 20.0855C90.8054 16.6931 82.8771 14.1937 74.5875 12.7622C74.4365 12.7346 74.2857 12.8036 74.208 12.9417C73.1883 14.7553 72.0589 17.1212 71.2679 18.9808C62.352 17.6459 53.4817 17.6459 44.7486 18.9808C43.9575 17.0798 42.787 14.7553 41.7628 12.9417C41.685 12.8082 41.5342 12.7392 41.3832 12.7622C33.0982 14.1891 25.1699 16.6885 17.7719 20.0855C17.7078 20.1131 17.6529 20.1592 17.6165 20.219C2.57806 42.6861 -1.54159 64.6009 0.479371 86.2441C0.488515 86.35 0.547954 86.4513 0.630257 86.5156C10.5522 93.8021 20.1633 98.2256 29.5958 101.158C29.7468 101.204 29.9068 101.148 30.0028 101.024C32.2341 97.9771 34.2231 94.7642 35.9285 91.3855C36.0291 91.1877 35.933 90.9529 35.7273 90.8746C32.5725 89.6779 29.5684 88.2187 26.6787 86.5617C26.4501 86.4282 26.4318 86.1013 26.6421 85.9448C27.2502 85.4891 27.8585 85.015 28.4391 84.5363C28.5442 84.4489 28.6906 84.4304 28.8141 84.4856C47.7982 93.1531 68.3508 93.1531 87.1109 84.4856C87.2344 84.4258 87.3808 84.4443 87.4905 84.5317C88.0713 85.0104 88.6794 85.4891 89.2921 85.9448C89.5023 86.1013 89.4886 86.4282 89.26 86.5617C86.3703 88.2509 83.3663 89.6779 80.2068 90.8701C80.0011 90.9483 79.9096 91.1877 80.0103 91.3855C81.7522 94.7595 83.7412 97.9724 85.9313 101.02C86.0228 101.148 86.1873 101.204 86.3383 101.158C95.8167 98.2256 105.428 93.8021 115.35 86.5156C115.436 86.4513 115.491 86.3545 115.501 86.2487C117.919 61.2268 111.449 39.4917 98.3497 20.2236C98.3177 20.1592 98.2629 20.1131 98.1989 20.0855ZM38.7634 73.0657C33.0479 73.0657 28.3385 67.8184 28.3385 61.3742C28.3385 54.93 32.9566 49.6827 38.7634 49.6827C44.6159 49.6827 49.2797 54.976 49.1882 61.3742C49.1882 67.8184 44.5701 73.0657 38.7634 73.0657ZM77.3079 73.0657C71.5926 73.0657 66.8831 67.8184 66.8831 61.3742C66.8831 54.93 71.5011 49.6827 77.3079 49.6827C83.1606 49.6827 87.8243 54.976 87.7329 61.3742C87.7329 67.8184 83.1606 73.0657 77.3079 73.0657Z" fill="white"></path> </g> <defs> <clipPath id="clip0_4_894"> <rect width="28.7794" height="28.7794" fill="white" transform="scale(4.03066)"></rect> </clipPath> </defs> </svg> 