<?xml version="1.0" encoding="UTF-8"?> <svg xmlns="http://www.w3.org/2000/svg" width="116" height="116" viewBox="0 0 116 116" fill="none"> <g clip-path="url(#clip0_4_896)"> <path fill-rule="evenodd" clip-rule="evenodd" d="M116 58C116 90.0325 90.0325 116 58 116C25.9675 116 0 90.0325 0 58C0 25.9675 25.9675 0 58 0C90.0325 0 116 25.9675 116 58ZM60.0785 42.8182C54.4371 45.1646 43.1623 50.0211 26.2541 57.3877C23.5085 58.4796 22.0702 59.5477 21.9393 60.5921C21.718 62.3572 23.9284 63.0523 26.9384 63.9988C27.3479 64.1275 27.7721 64.2609 28.207 64.4023C31.1684 65.3649 35.152 66.4911 37.2229 66.5358C39.1014 66.5764 41.198 65.802 43.5128 64.2125C59.3106 53.5485 67.4655 48.1584 67.9775 48.0422C68.3387 47.9602 68.8392 47.8572 69.1784 48.1586C69.5175 48.46 69.4842 49.0309 69.4482 49.184C69.2293 50.1175 60.5526 58.1841 56.0624 62.3586C54.6626 63.66 53.6697 64.5831 53.4667 64.7939C53.012 65.2662 52.5486 65.7129 52.1032 66.1422C49.352 68.7944 47.2889 70.7833 52.2175 74.0311C54.5859 75.5919 56.4812 76.8826 58.3719 78.1702C60.4368 79.5764 62.4964 80.9789 65.1611 82.7257C65.84 83.1707 66.4884 83.633 67.12 84.0832C69.523 85.7964 71.6819 87.3355 74.3492 87.0901C75.899 86.9474 77.4999 85.4901 78.3129 81.1437C80.2344 70.8719 84.0112 48.6159 84.8841 39.4447C84.9605 38.6412 84.8643 37.6129 84.7871 37.1614C84.7098 36.71 84.5484 36.0669 83.9616 35.5907C83.2667 35.0269 82.1939 34.908 81.7141 34.9164C79.5326 34.9548 76.1857 36.1186 60.0785 42.8182Z" fill="white"></path> </g> <defs> <clipPath id="clip0_4_896"> <rect width="28.7794" height="28.7794" fill="white" transform="scale(4.03066)"></rect> </clipPath> </defs> </svg> 