<?xml version="1.0" encoding="UTF-8"?> <svg xmlns="http://www.w3.org/2000/svg" width="116" height="116" viewBox="0 0 116 116" fill="none"> <g clip-path="url(#clip0_4_891)"> <path d="M116 58C116 25.9675 90.0325 0 58 0C25.9675 0 0 25.9675 0 58C0 86.949 21.2096 110.944 48.9375 115.295V74.7656H34.2109V58H48.9375V45.2219C48.9375 30.6856 57.5967 22.6562 70.845 22.6562C77.1887 22.6562 83.8281 23.7891 83.8281 23.7891V38.0625H76.5147C69.31 38.0625 67.0625 42.5337 67.0625 47.125V58H83.1484L80.5769 74.7656H67.0625V115.295C94.7903 110.944 116 86.949 116 58Z" fill="white"></path> </g> <defs> <clipPath id="clip0_4_891"> <rect width="28.7794" height="28.7794" fill="white" transform="scale(4.03066)"></rect> </clipPath> </defs> </svg> 