<?xml version="1.0" encoding="UTF-8"?> <svg xmlns="http://www.w3.org/2000/svg" width="116" height="116" viewBox="0 0 116 116" fill="none"> <g clip-path="url(#clip0_4_895)"> <path d="M107.413 0H8.56406C3.82891 0 0 3.73828 0 8.36016V107.617C0 112.239 3.82891 116 8.56406 116H107.413C112.148 116 116 112.239 116 107.64V8.36016C116 3.73828 112.148 0 107.413 0ZM34.4148 98.8492H17.1961V43.4773H34.4148V98.8492ZM25.8055 35.9328C20.2773 35.9328 15.8141 31.4695 15.8141 25.9641C15.8141 20.4586 20.2773 15.9953 25.8055 15.9953C31.3109 15.9953 35.7742 20.4586 35.7742 25.9641C35.7742 31.4469 31.3109 35.9328 25.8055 35.9328ZM98.8492 98.8492H81.6531V71.9336C81.6531 65.5219 81.5398 57.2523 72.7039 57.2523C63.7547 57.2523 62.3953 64.2531 62.3953 71.4805V98.8492H45.2219V43.4773H61.7156V51.0445H61.9422C64.2305 46.6945 69.8492 42.0953 78.2094 42.0953C95.632 42.0953 98.8492 53.5594 98.8492 68.4672V98.8492Z" fill="white"></path> </g> <defs> <clipPath id="clip0_4_895"> <rect width="28.7794" height="28.7794" fill="white" transform="scale(4.03066)"></rect> </clipPath> </defs> </svg> 