<?xml version="1.0" encoding="UTF-8"?> <svg xmlns="http://www.w3.org/2000/svg" width="116" height="116" viewBox="0 0 116 116" fill="none"> <g clip-path="url(#clip0_4_897)"> <path d="M114.845 34.8001C114.845 34.8001 113.712 26.8025 110.223 23.2908C105.805 18.6689 100.866 18.6462 98.6 18.3744C82.3781 17.1962 58.0227 17.1962 58.0227 17.1962H57.9773C57.9773 17.1962 33.6219 17.1962 17.4 18.3744C15.1344 18.6462 10.1953 18.6689 5.77734 23.2908C2.28828 26.8025 1.17812 34.8001 1.17812 34.8001C1.17812 34.8001 0 44.2025 0 53.5822V62.3728C0 71.7525 1.15547 81.1548 1.15547 81.1548C1.15547 81.1548 2.28828 89.1525 5.75469 92.6642C10.1727 97.2861 15.9727 97.1275 18.5555 97.6259C27.8445 98.5095 58 98.7814 58 98.7814C58 98.7814 82.3781 98.7361 98.6 97.5806C100.866 97.3087 105.805 97.2861 110.223 92.6642C113.712 89.1525 114.845 81.1548 114.845 81.1548C114.845 81.1548 116 71.7751 116 62.3728V53.5822C116 44.2025 114.845 34.8001 114.845 34.8001ZM46.0148 73.0439V40.4415L77.3484 56.7994L46.0148 73.0439Z" fill="white"></path> </g> <defs> <clipPath id="clip0_4_897"> <rect width="28.7794" height="28.7794" fill="white" transform="scale(4.03066)"></rect> </clipPath> </defs> </svg> 